<svg width="1214" height="189" xmlns="http://www.w3.org/2000/svg" xmlns:xlink="http://www.w3.org/1999/xlink" xml:space="preserve" overflow="hidden"><defs><clipPath id="clip0"><rect x="18" y="119" width="1214" height="189"/></clipPath><clipPath id="clip1"><rect x="31" y="119" width="1201" height="190"/></clipPath><clipPath id="clip2"><rect x="31" y="64" width="1281" height="377"/></clipPath><clipPath id="clip3"><rect x="31" y="64" width="1281" height="377"/></clipPath><clipPath id="clip4"><rect x="31" y="115" width="196" height="198"/></clipPath><clipPath id="clip5"><rect x="31" y="115" width="196" height="198"/></clipPath><clipPath id="clip6"><rect x="-259" y="-93" width="774" height="960"/></clipPath><clipPath id="clip7"><rect x="-259" y="-93" width="774" height="960"/></clipPath></defs><g clip-path="url(#clip0)" transform="translate(-18 -119)"><g clip-path="url(#clip1)"><g clip-path="url(#clip2)"><g clip-path="url(#clip3)"><text fill="#8155BA" font-family="Noto Sans Math,Noto Sans Math_MSFontService,sans-serif" font-weight="700" font-size="642" transform="matrix(0.279213 0 0 0.279243 229.097 272)">c</text><text fill="#8155BA" font-family="Noto Sans Math,Noto Sans Math_MSFontService,sans-serif" font-weight="700" font-size="642" transform="matrix(0.279213 0 0 0.279243 313.719 272)">onvolution</text><g clip-path="url(#clip4)"><g clip-path="url(#clip5)"><g clip-path="url(#clip6)"><g clip-path="url(#clip7)"><path d="M410.305 165.605C410.305 159.317 415.401 154.221 421.69 154.221L580.744 154.221C587.032 154.221 592.128 159.317 592.128 165.605L592.128 324.656C592.128 330.944 587.032 336.041 580.744 336.041L421.69 336.041C415.401 336.041 410.305 330.944 410.305 324.656Z" fill="#8155BA" fill-rule="evenodd" transform="matrix(1.00004 0 0 1 -373.63 -30.9985)"/><text fill="#FFFFFF" font-family="Baskerville Old Face,Baskerville Old Face_MSFontService,sans-serif" font-weight="400" font-size="1604" transform="matrix(0.284551 0 0 0.28454 16.0731 468)">*</text></g></g></g></g></g></g></g></g></svg>